<svg width="18" height="20" viewBox="0 0 18 20" fill="none" xmlns="http://www.w3.org/2000/svg">
<path d="M2 14V14.18C0.84 14.59 0 15.69 0 17C0 18.65 1.35 20 3 20C4.65 20 6 18.65 6 17C6 15.7 5.16 14.6 4 14.18V11H13.5C14.163 11 14.7989 10.7366 15.2678 10.2678C15.7366 9.79893 16 9.16304 16 8.5V5.82C17.16 5.41 18 4.31 18 3C18 1.35 16.65 0 15 0C13.35 0 12 1.35 12 3C12 4.3 12.84 5.4 14 5.82V8.5C14 8.78 13.78 9 13.5 9H4V5.82C5.16 5.41 6 4.31 6 3C6 1.35 4.65 0 3 0C1.35 0 0 1.35 0 3C0 4.3 0.84 5.4 2 5.82V14ZM15 2C15.55 2 16 2.45 16 3C16 3.55 15.55 4 15 4C14.45 4 14 3.55 14 3C14 2.45 14.45 2 15 2ZM3 2C3.55 2 4 2.45 4 3C4 3.55 3.55 4 3 4C2.45 4 2 3.55 2 3C2 2.45 2.45 2 3 2ZM3 18C2.45 18 2 17.55 2 17C2 16.45 2.45 16 3 16C3.55 16 4 16.45 4 17C4 17.55 3.55 18 3 18Z" fill="black"/>
</svg>
