<svg width="16" height="21" viewBox="0 0 16 21" fill="none" xmlns="http://www.w3.org/2000/svg">
<path d="M11.9999 8.00977C11.9999 5.79977 10.2099 4.00977 7.99995 4.00977C5.78998 4.00977 4 5.79977 4 8.00977C4 10.2198 5.78998 12.0098 7.99995 12.0098C10.2099 12.0098 11.9999 10.2198 11.9999 8.00977ZM5.99998 8.00977C5.99998 6.90977 6.89997 6.00977 7.99995 6.00977C9.09994 6.00977 9.99993 6.90977 9.99993 8.00977C9.99993 9.10977 9.09994 10.0098 7.99995 10.0098C6.89997 10.0098 5.99998 9.10977 5.99998 8.00977Z" fill="black"/>
<path d="M7.42001 19.82C7.59 19.94 7.8 20.01 8 20.01C8.2 20.01 8.41 19.95 8.57999 19.82C8.87999 19.6 16.0299 14.45 15.9999 8C15.9999 3.59 12.4099 0 8 0C3.59005 0 9.41383e-05 3.59 9.41383e-05 8C-0.0299055 14.44 7.12001 19.6 7.42001 19.82ZM8 2.01C11.31 2.01 13.9999 4.7 13.9999 8.01C14.0199 12.45 9.60998 16.44 8 17.75C6.39002 16.44 1.98007 12.46 2.00007 8.01C2.00007 4.7 4.69004 2.01 8 2.01Z" fill="black"/>
</svg>
