<svg width="40" height="40" viewBox="0 0 40 40" fill="none" xmlns="http://www.w3.org/2000/svg">
<path d="M23.9999 18.0098C23.9999 15.7998 22.2099 14.0098 20 14.0098C17.79 14.0098 16 15.7998 16 18.0098C16 20.2198 17.79 22.0098 20 22.0098C22.2099 22.0098 23.9999 20.2198 23.9999 18.0098ZM18 18.0098C18 16.9098 18.9 16.0098 20 16.0098C21.0999 16.0098 21.9999 16.9098 21.9999 18.0098C21.9999 19.1098 21.0999 20.0098 20 20.0098C18.9 20.0098 18 19.1098 18 18.0098Z" fill="black"/>
<path d="M19.42 29.82C19.59 29.94 19.8 30.01 20 30.01C20.2 30.01 20.41 29.95 20.58 29.82C20.88 29.6 28.0299 24.45 27.9999 18C27.9999 13.59 24.4099 10 20 10C15.5901 10 12.0001 13.59 12.0001 18C11.9701 24.44 19.12 29.6 19.42 29.82ZM20 12.01C23.31 12.01 25.9999 14.7 25.9999 18.01C26.0199 22.45 21.61 26.44 20 27.75C18.39 26.44 13.9801 22.46 14.0001 18.01C14.0001 14.7 16.69 12.01 20 12.01Z" fill="black"/>
</svg>
