<svg width="24" height="24" viewBox="0 0 24 24" fill="none" xmlns="http://www.w3.org/2000/svg">
<path d="M9.99984 18.9998C9.99984 20.0998 10.8898 20.9998 11.9998 20.9998C13.1098 20.9998 13.9998 20.0998 13.9998 18.9998C13.9998 17.8998 13.0998 16.9998 11.9998 16.9998C10.8998 16.9998 9.99984 17.8998 9.99984 18.9998ZM17.6598 15.3898C16.1498 13.8798 14.1398 13.0498 11.9998 13.0498C9.85984 13.0498 7.84984 13.8798 6.33984 15.3898L7.74984 16.7998C8.87984 15.6698 10.3898 15.0398 11.9898 15.0398C13.5898 15.0398 15.0998 15.6598 16.2298 16.7998L17.6398 15.3898H17.6598Z" fill="#009900"/>
<path d="M20.4898 12.5698C18.2198 10.2998 15.2098 9.0498 11.9998 9.0498C8.78977 9.0498 5.77977 10.2998 3.50977 12.5698L4.92977 13.9798C6.81977 12.0898 9.32977 11.0498 11.9998 11.0498C14.6698 11.0498 17.1798 12.0898 19.0698 13.9798L20.4898 12.5698Z" fill="#009900"/>
<path d="M0.689453 9.69L2.09945 11.1C4.73945 8.46 8.25945 7 11.9995 7C15.7395 7 19.2495 8.46 21.8995 11.1L23.3095 9.69C20.2895 6.67 16.2695 5 11.9995 5C7.72945 5 3.70945 6.66 0.689453 9.69Z" fill="#009900"/>
</svg>
