<svg width="40" height="40" viewBox="0 0 40 40" fill="none" xmlns="http://www.w3.org/2000/svg">
<path d="M13 24V24.18C11.84 24.59 11 25.69 11 27C11 28.65 12.35 30 14 30C15.65 30 17 28.65 17 27C17 25.7 16.16 24.6 15 24.18V21H24.5C25.163 21 25.7989 20.7366 26.2678 20.2678C26.7366 19.7989 27 19.163 27 18.5V15.82C28.16 15.41 29 14.31 29 13C29 11.35 27.65 10 26 10C24.35 10 23 11.35 23 13C23 14.3 23.84 15.4 25 15.82V18.5C25 18.78 24.78 19 24.5 19H15V15.82C16.16 15.41 17 14.31 17 13C17 11.35 15.65 10 14 10C12.35 10 11 11.35 11 13C11 14.3 11.84 15.4 13 15.82V24ZM26 12C26.55 12 27 12.45 27 13C27 13.55 26.55 14 26 14C25.45 14 25 13.55 25 13C25 12.45 25.45 12 26 12ZM14 12C14.55 12 15 12.45 15 13C15 13.55 14.55 14 14 14C13.45 14 13 13.55 13 13C13 12.45 13.45 12 14 12ZM14 28C13.45 28 13 27.55 13 27C13 26.45 13.45 26 14 26C14.55 26 15 26.45 15 27C15 27.55 14.55 28 14 28Z" fill="black"/>
</svg>
