<svg width="24" height="24" viewBox="0 0 24 24" fill="none" xmlns="http://www.w3.org/2000/svg">
<path d="M5 21H19C20.1 21 21 20.1 21 19V8.00002C21 7.73002 20.89 7.48002 20.71 7.29002L16.71 3.29002C16.6166 3.19734 16.5057 3.12401 16.3839 3.07425C16.2621 3.02448 16.1316 2.99926 16 3.00002H5C3.9 3.00002 3 3.90002 3 5.00002V19C3 20.1 3.9 21 5 21ZM15 19H9V14H15V19ZM11 5.00002H13V7.00002H11V5.00002ZM5 5.00002H7V9.00002H15V5.00002H15.59L19 8.41002V19H17V14C17 12.9 16.1 12 15 12H9C7.9 12 7 12.9 7 14V19H5V5.00002Z" fill="black"/>
</svg>
