<svg width="24" height="24" viewBox="0 0 24 24" fill="none" xmlns="http://www.w3.org/2000/svg">
<path d="M20 2H4C3.45 2 3 2.45 3 3V5C3 5.22 3.07 5.43 3.2 5.6L9 13.33V21C9 21.2652 9.10536 21.5196 9.29289 21.7071C9.48043 21.8946 9.73478 22 10 22C10.15 22 10.31 21.96 10.45 21.89L14.45 19.89C14.6149 19.8069 14.7536 19.6798 14.8507 19.5227C14.9478 19.3656 14.9994 19.1847 15 19V13.33L20.8 5.6C20.93 5.43 21 5.22 21 5V3C21 2.45 20.55 2 20 2ZM19 4.67L13.2 12.4C13.07 12.57 13 12.78 13 13V18.38L11 19.38V13C11 12.78 10.93 12.57 10.8 12.4L5 4.67V4H19V4.67Z" fill="black" fill-opacity="0.29"/>
</svg>
