<svg width="20" height="16" viewBox="0 0 20 16" fill="none" xmlns="http://www.w3.org/2000/svg">
<path fill-rule="evenodd" clip-rule="evenodd" d="M3.00328 6.42257C3.02134 4.9065 3.56882 3.44445 4.55098 2.28939C5.53314 1.13434 6.88818 0.358965 8.38163 0.0974396C9.87508 -0.164086 11.413 0.104693 12.7292 0.857266C14.0454 1.60984 15.0571 2.79886 15.5893 4.21857C16.9886 4.60447 18.2006 5.48439 19.0009 6.69537C19.8012 7.90634 20.1356 9.36632 19.942 10.8049C19.7485 12.2435 19.0401 13.5632 17.9482 14.5196C16.8563 15.4759 15.4548 16.0042 14.0033 16.0066H5.00328C3.85399 16.0073 2.73953 15.6121 1.84747 14.8875C0.955411 14.1629 0.340222 13.153 0.105445 12.028C-0.129332 10.9029 0.0306373 9.73133 0.558429 8.7104C1.08622 7.68947 1.94961 6.88153 3.00328 6.42257ZM9.50328 2.00657C8.87007 2.00645 8.24396 2.13996 7.66589 2.39838C7.08781 2.65681 6.57078 3.03432 6.1486 3.50625C5.72641 3.97817 5.40858 4.53388 5.21587 5.13706C5.02316 5.74023 4.95992 6.37728 5.03028 7.00657C5.05695 7.24917 4.99488 7.49323 4.85554 7.69361C4.71619 7.89399 4.509 8.03713 4.27228 8.09657C3.56521 8.27776 2.94838 8.71036 2.53718 9.31342C2.12599 9.91649 1.94859 10.6487 2.03819 11.3731C2.12779 12.0975 2.47825 12.7644 3.02399 13.2491C3.56973 13.7338 4.27337 14.0031 5.00328 14.0066H14.0033C15.0083 14.0081 15.9771 13.6312 16.7169 12.9509C17.4567 12.2706 17.9132 11.3368 17.9958 10.3351C18.0784 9.33351 17.7808 8.3375 17.1624 7.54527C16.544 6.75303 15.65 6.22263 14.6583 6.05957C14.4673 6.028 14.2894 5.94222 14.1458 5.81244C14.0022 5.68267 13.899 5.51437 13.8483 5.32757C13.5893 4.37366 13.0235 3.53154 12.2381 2.9313C11.4528 2.33106 10.4917 2.00609 9.50328 2.00657Z" fill="black"/>
</svg>
