<svg width="135" height="135" viewBox="0 0 135 135" fill="none" xmlns="http://www.w3.org/2000/svg">
<path d="M67.5 0C104.779 0 135 30.2208 135 67.5C135 104.779 104.779 135 67.5 135C30.2208 135 0 104.779 0 67.5C0 30.2208 30.2208 0 67.5 0ZM67.5 22C42.371 22 22 42.371 22 67.5C22 92.629 42.371 113 67.5 113C92.629 113 113 92.629 113 67.5C113 42.371 92.629 22 67.5 22Z" fill="#100226"/>
<g clip-path="url(#clip0_4782_157)">
<path d="M73.6205 72.6297L67.9636 57.0734C67.8946 56.8797 67.7669 56.7123 67.5984 56.5944C67.4299 56.4766 67.2288 56.4141 67.0232 56.4158C66.5989 56.4158 66.2241 56.6774 66.0827 57.0734L60.4259 72.6297C60.2986 72.9974 60.3834 73.4076 60.6592 73.6833L60.7016 73.7258C61.0057 74.0015 61.4441 74.0581 61.8118 73.8743L67.0232 71.265L72.2345 73.8743C72.6022 74.0581 73.0406 74.0015 73.3447 73.7258C73.6488 73.45 73.7619 73.0257 73.6134 72.6368L73.6205 72.6297Z" fill="white"/>
</g>
<path d="M65.6667 22C65.6667 22.7364 66.2636 23.3333 67 23.3333C67.7364 23.3333 68.3333 22.7364 68.3333 22C68.3333 21.2636 67.7364 20.6667 67 20.6667C66.2636 20.6667 65.6667 21.2636 65.6667 22ZM67 22H66.75V59H67H67.25V22H67Z" fill="white"/>
<path d="M71.044 18H69.448L64.646 10.734V18H63.05V8.256H64.646L69.448 15.508V8.256H71.044V18Z" fill="white"/>
<path d="M67 121V132" stroke="white" stroke-opacity="0.64" stroke-width="0.5"/>
<path d="M67 111V116" stroke="white" stroke-opacity="0.87"/>
<path d="M6 68H17" stroke="white" stroke-opacity="0.64" stroke-width="0.5"/>
<path d="M20 68H25" stroke="white"/>
<path d="M111 68H116" stroke="white"/>
<path d="M119 68H130" stroke="white" stroke-opacity="0.64" stroke-width="0.5"/>
<defs>
<clipPath id="clip0_4782_157">
<rect width="24" height="24" fill="white" transform="translate(55 56)"/>
</clipPath>
</defs>
</svg>
