<svg width="24" height="60" viewBox="0 0 24 60" fill="none" xmlns="http://www.w3.org/2000/svg">
<g clip-path="url(#clip0_4782_161)">
<path d="M18.6205 51.9632L12.9636 36.4069C12.8946 36.2132 12.7669 36.0458 12.5984 35.9279C12.4299 35.8101 12.2288 35.7476 12.0232 35.7493C11.5989 35.7493 11.2241 36.0109 11.0827 36.4069L5.42586 51.9632C5.29858 52.3309 5.38343 52.7411 5.6592 53.0168L5.70163 53.0593C6.00568 53.335 6.44409 53.3916 6.81179 53.2077L12.0232 50.5985L17.2345 53.2077C17.6022 53.3916 18.0406 53.335 18.3447 53.0593C18.6488 52.7835 18.7619 52.3592 18.6134 51.9703L18.6205 51.9632Z" fill="white"/>
</g>
<path d="M10.6667 1.3335C10.6667 2.06988 11.2636 2.66683 12 2.66683C12.7364 2.66683 13.3333 2.06988 13.3333 1.3335C13.3333 0.597116 12.7364 0.000162721 12 0.000162721C11.2636 0.000162721 10.6667 0.597116 10.6667 1.3335ZM12 1.3335H11.75V38.3335H12H12.25V1.3335H12Z" fill="white"/>
<defs>
<clipPath id="clip0_4782_161">
<rect width="24" height="24" fill="white" transform="translate(0 35.3335)"/>
</clipPath>
</defs>
</svg>
