<svg width="24" height="24" viewBox="0 0 24 24" fill="none" xmlns="http://www.w3.org/2000/svg">
<path d="M13.002 8.0071C16.171 8.0071 17.968 10.1041 18.229 12.6371H18.309C18.7933 12.6364 19.273 12.7312 19.7206 12.9159C20.1682 13.1007 20.5751 13.3718 20.918 13.7138C21.2608 14.0558 21.5329 14.462 21.7188 14.9092C21.9046 15.3564 22.0005 15.8358 22.001 16.3201C22.0004 16.8043 21.9044 17.2836 21.7185 17.7307C21.5326 18.1778 21.2604 18.5838 20.9176 18.9257C20.5748 19.2676 20.1679 19.5387 19.7204 19.7234C19.2728 19.908 18.7932 20.0028 18.309 20.0021H7.69503C7.21085 20.0028 6.73128 19.908 6.2837 19.7234C5.83612 19.5387 5.4293 19.2676 5.08647 18.9257C4.74363 18.5838 4.4715 18.1778 4.2856 17.7307C4.09971 17.2836 4.00369 16.8043 4.00303 16.3201C4.00356 15.8358 4.09948 15.3564 4.28532 14.9092C4.47115 14.462 4.74327 14.0558 5.08611 13.7138C5.42896 13.3718 5.83583 13.1007 6.28347 12.9159C6.73111 12.7312 7.21077 12.6364 7.69503 12.6371H7.77503C8.03803 10.0871 9.83403 8.0071 13.002 8.0071ZM13.002 9.5051C10.931 9.5051 9.12503 11.1381 9.12503 13.3941C9.12503 13.7511 8.80604 14.0321 8.44103 14.0321H7.75103C6.49003 14.0321 5.46703 15.0331 5.46703 16.2681C5.46703 17.5031 6.49003 18.5041 7.75103 18.5041H18.253C19.515 18.5041 20.537 17.5041 20.537 16.2681C20.537 15.0331 19.515 14.0321 18.254 14.0321H17.563C17.198 14.0321 16.879 13.7521 16.879 13.3941C16.879 11.1091 15.073 9.5041 13.002 9.5041M4.36803 12.1611C4.43749 12.3287 4.44384 12.5158 4.38593 12.6877C4.32801 12.8596 4.20974 13.0047 4.05303 13.0961L3.96203 13.1411L3.03503 13.5251C2.85968 13.5966 2.66378 13.5991 2.48666 13.5321C2.30954 13.4651 2.16431 13.3336 2.08013 13.164C1.99596 12.9944 1.97906 12.7992 2.03283 12.6176C2.0866 12.436 2.20706 12.2815 2.37003 12.1851L2.46103 12.1391L3.38803 11.7561C3.5717 11.6799 3.77811 11.6798 3.96188 11.7557C4.14565 11.8317 4.29174 11.9775 4.36803 12.1611ZM10.855 7.3281L10.683 7.3861C10.1628 7.56812 9.67122 7.82335 9.22303 8.1441C8.74156 7.98771 8.22338 7.98481 7.74019 8.13582C7.257 8.28683 6.83268 8.58427 6.52594 8.98699C6.2192 9.38972 6.0452 9.87782 6.02802 10.3838C6.01084 10.8897 6.15132 11.3885 6.43003 11.8111C5.94224 11.9477 5.48035 12.164 5.06303 12.4511C4.6047 11.6633 4.4335 10.7411 4.57857 9.8413C4.72363 8.94151 5.17599 8.1198 5.85868 7.51598C6.54136 6.91216 7.41218 6.56355 8.32295 6.52948C9.23371 6.49541 10.1281 6.77798 10.854 7.3291M2.94003 7.3601L3.04503 7.3951L3.97203 7.7791C4.14616 7.85209 4.28635 7.98807 4.36461 8.15989C4.44288 8.33171 4.45346 8.52673 4.39425 8.706C4.33504 8.88528 4.21039 9.03563 4.04518 9.12704C3.87998 9.21844 3.68638 9.24418 3.50303 9.1991L3.40003 9.1661L2.47303 8.7821C2.29891 8.70911 2.15872 8.57313 2.08046 8.40131C2.00219 8.2295 1.99161 8.03448 2.05082 7.8552C2.11003 7.67592 2.23468 7.52557 2.39989 7.43417C2.56509 7.34276 2.75869 7.31703 2.94203 7.3621M6.75703 4.3761L6.80203 4.4671L7.18603 5.3941C7.25751 5.56946 7.26 5.76536 7.19302 5.94248C7.12604 6.1196 6.99454 6.26482 6.82491 6.349C6.65529 6.43318 6.4601 6.45008 6.27854 6.39631C6.09697 6.34254 5.94246 6.22207 5.84603 6.0591L5.80003 5.9681L5.41703 5.0411C5.34556 4.86575 5.34307 4.66985 5.41005 4.49273C5.47703 4.31561 5.60853 4.17038 5.77816 4.0862C5.94778 4.00202 6.14297 3.98512 6.32453 4.0389C6.5061 4.09267 6.66061 4.21313 6.75703 4.3761ZM11.111 4.0571C11.2771 4.12601 11.4128 4.25227 11.4936 4.41287C11.5743 4.57347 11.5947 4.75773 11.551 4.9321L11.516 5.0371L11.133 5.9641C11.0612 6.1399 10.9253 6.28187 10.7528 6.36138C10.5803 6.44089 10.3841 6.452 10.2038 6.39247C10.0234 6.33295 9.87235 6.20722 9.78109 6.04067C9.68983 5.87412 9.66515 5.67914 9.71203 5.4951L9.74703 5.3891L10.131 4.4631C10.1687 4.37209 10.224 4.28939 10.2936 4.21973C10.3632 4.15007 10.4459 4.09481 10.5369 4.05711C10.6279 4.01941 10.7255 4 10.824 4C10.9225 4 11.02 4.0194 11.111 4.0571Z" fill="black"/>
</svg>
