<svg width="70" height="26" viewBox="0 0 70 26" fill="none" xmlns="http://www.w3.org/2000/svg">
<rect width="70" height="26" rx="2" fill="black"/>
<path d="M20.666 7.6665C20.8428 7.6665 21.0124 7.73674 21.1374 7.86177C21.2624 7.98679 21.3327 8.15636 21.3327 8.33317V11.1332L24.808 8.69984C24.858 8.66481 24.9166 8.64417 24.9775 8.64017C25.0384 8.63617 25.0992 8.64897 25.1534 8.67717C25.2075 8.70536 25.2528 8.74788 25.2844 8.80007C25.3161 8.85227 25.3328 8.91214 25.3327 8.97317V17.0265C25.3328 17.0875 25.3161 17.1474 25.2844 17.1996C25.2528 17.2518 25.2075 17.2943 25.1534 17.3225C25.0992 17.3507 25.0384 17.3635 24.9775 17.3595C24.9166 17.3555 24.858 17.3349 24.808 17.2998L21.3327 14.8665V17.6665C21.3327 17.8433 21.2624 18.0129 21.1374 18.1379C21.0124 18.2629 20.8428 18.3332 20.666 18.3332H11.3327C11.1559 18.3332 10.9863 18.2629 10.8613 18.1379C10.7363 18.0129 10.666 17.8433 10.666 17.6665V8.33317C10.666 8.15636 10.7363 7.98679 10.8613 7.86177C10.9863 7.73674 11.1559 7.6665 11.3327 7.6665H20.666ZM14.9327 10.8858C14.8712 10.8858 14.8116 10.9071 14.764 10.9459C14.7164 10.9848 14.6836 11.0389 14.6713 11.0992L14.666 11.1518V14.8465C14.666 14.8897 14.6765 14.9322 14.6966 14.9705C14.7166 15.0087 14.7457 15.0415 14.7812 15.066C14.8168 15.0906 14.8577 15.1061 14.9006 15.1113C14.9435 15.1165 14.987 15.1112 15.0273 15.0958L15.076 15.0718L17.9793 13.2245C18.0133 13.2028 18.042 13.1738 18.0631 13.1394C18.0843 13.1051 18.0973 13.0665 18.1014 13.0264C18.1054 12.9863 18.1003 12.9458 18.0865 12.9079C18.0726 12.8701 18.0503 12.8358 18.0213 12.8078L17.9793 12.7745L15.076 10.9265C15.033 10.8998 14.9833 10.8853 14.9327 10.8858Z" fill="#009900"/>
<path d="M38.508 15.668H41.268V17H36.828V8.624H38.508V15.668ZM44.0158 8.624V17H42.3358V8.624H44.0158ZM53.1997 8.624L50.1277 17H48.0877L45.0157 8.624H46.8157L49.1197 15.284L51.4117 8.624H53.1997ZM55.8869 9.98V12.08H58.7069V13.412H55.8869V15.632H59.0669V17H54.2069V8.612H59.0669V9.98H55.8869Z" fill="#009900"/>
</svg>
