<svg width="84" height="25" viewBox="0 0 84 25" fill="none" xmlns="http://www.w3.org/2000/svg">
<rect x="0.25" y="0.25" width="83.5" height="24.5" rx="12.25" fill="#CCFFCC"/>
<rect x="0.25" y="0.25" width="83.5" height="24.5" rx="12.25" stroke="#006600" stroke-width="0.5"/>
<path d="M8.64881 12.312C8.64881 11.496 8.83281 10.764 9.20081 10.116C9.56881 9.46 10.0688 8.948 10.7008 8.58C11.3408 8.212 12.0488 8.028 12.8248 8.028C13.7368 8.028 14.5328 8.248 15.2128 8.688C15.8928 9.128 16.3888 9.752 16.7008 10.56H15.3928C15.1608 10.056 14.8248 9.668 14.3848 9.396C13.9528 9.124 13.4328 8.988 12.8248 8.988C12.2408 8.988 11.7168 9.124 11.2528 9.396C10.7888 9.668 10.4248 10.056 10.1608 10.56C9.89681 11.056 9.76481 11.64 9.76481 12.312C9.76481 12.976 9.89681 13.56 10.1608 14.064C10.4248 14.56 10.7888 14.944 11.2528 15.216C11.7168 15.488 12.2408 15.624 12.8248 15.624C13.4328 15.624 13.9528 15.492 14.3848 15.228C14.8248 14.956 15.1608 14.568 15.3928 14.064H16.7008C16.3888 14.864 15.8928 15.484 15.2128 15.924C14.5328 16.356 13.7368 16.572 12.8248 16.572C12.0488 16.572 11.3408 16.392 10.7008 16.032C10.0688 15.664 9.56881 15.156 9.20081 14.508C8.83281 13.86 8.64881 13.128 8.64881 12.312ZM21.1943 16.608C20.5783 16.608 20.0183 16.468 19.5143 16.188C19.0183 15.908 18.6263 15.512 18.3383 15C18.0583 14.48 17.9183 13.88 17.9183 13.2C17.9183 12.528 18.0623 11.936 18.3503 11.424C18.6463 10.904 19.0463 10.508 19.5503 10.236C20.0543 9.956 20.6183 9.816 21.2423 9.816C21.8663 9.816 22.4303 9.956 22.9343 10.236C23.4383 10.508 23.8343 10.9 24.1223 11.412C24.4183 11.924 24.5663 12.52 24.5663 13.2C24.5663 13.88 24.4143 14.48 24.1103 15C23.8143 15.512 23.4103 15.908 22.8983 16.188C22.3863 16.468 21.8183 16.608 21.1943 16.608ZM21.1943 15.648C21.5863 15.648 21.9543 15.556 22.2983 15.372C22.6423 15.188 22.9183 14.912 23.1263 14.544C23.3423 14.176 23.4503 13.728 23.4503 13.2C23.4503 12.672 23.3463 12.224 23.1383 11.856C22.9303 11.488 22.6583 11.216 22.3223 11.04C21.9863 10.856 21.6223 10.764 21.2303 10.764C20.8303 10.764 20.4623 10.856 20.1263 11.04C19.7983 11.216 19.5343 11.488 19.3343 11.856C19.1343 12.224 19.0343 12.672 19.0343 13.2C19.0343 13.736 19.1303 14.188 19.3223 14.556C19.5223 14.924 19.7863 15.2 20.1143 15.384C20.4423 15.56 20.8023 15.648 21.1943 15.648ZM33.9101 9.804C34.4221 9.804 34.8781 9.912 35.2781 10.128C35.6781 10.336 35.9941 10.652 36.2261 11.076C36.4581 11.5 36.5741 12.016 36.5741 12.624V16.5H35.4941V12.78C35.4941 12.124 35.3301 11.624 35.0021 11.28C34.6821 10.928 34.2461 10.752 33.6941 10.752C33.1261 10.752 32.6741 10.936 32.3381 11.304C32.0021 11.664 31.8341 12.188 31.8341 12.876V16.5H30.7541V12.78C30.7541 12.124 30.5901 11.624 30.2621 11.28C29.9421 10.928 29.5061 10.752 28.9541 10.752C28.3861 10.752 27.9341 10.936 27.5981 11.304C27.2621 11.664 27.0941 12.188 27.0941 12.876V16.5H26.0021V9.924H27.0941V10.872C27.3101 10.528 27.5981 10.264 27.9581 10.08C28.3261 9.896 28.7301 9.804 29.1701 9.804C29.7221 9.804 30.2101 9.928 30.6341 10.176C31.0581 10.424 31.3741 10.788 31.5821 11.268C31.7661 10.804 32.0701 10.444 32.4941 10.188C32.9181 9.932 33.3901 9.804 33.9101 9.804ZM39.4574 11.136C39.6734 10.76 39.9934 10.448 40.4174 10.2C40.8494 9.944 41.3494 9.816 41.9174 9.816C42.5014 9.816 43.0294 9.956 43.5014 10.236C43.9814 10.516 44.3574 10.912 44.6294 11.424C44.9014 11.928 45.0374 12.516 45.0374 13.188C45.0374 13.852 44.9014 14.444 44.6294 14.964C44.3574 15.484 43.9814 15.888 43.5014 16.176C43.0294 16.464 42.5014 16.608 41.9174 16.608C41.3574 16.608 40.8614 16.484 40.4294 16.236C40.0054 15.98 39.6814 15.664 39.4574 15.288V19.62H38.3654V9.924H39.4574V11.136ZM43.9214 13.188C43.9214 12.692 43.8214 12.26 43.6214 11.892C43.4214 11.524 43.1494 11.244 42.8054 11.052C42.4694 10.86 42.0974 10.764 41.6894 10.764C41.2894 10.764 40.9174 10.864 40.5734 11.064C40.2374 11.256 39.9654 11.54 39.7574 11.916C39.5574 12.284 39.4574 12.712 39.4574 13.2C39.4574 13.696 39.5574 14.132 39.7574 14.508C39.9654 14.876 40.2374 15.16 40.5734 15.36C40.9174 15.552 41.2894 15.648 41.6894 15.648C42.0974 15.648 42.4694 15.552 42.8054 15.36C43.1494 15.16 43.4214 14.876 43.6214 14.508C43.8214 14.132 43.9214 13.692 43.9214 13.188ZM47.5668 7.62V16.5H46.4748V7.62H47.5668ZM55.4279 12.96C55.4279 13.168 55.4159 13.388 55.3919 13.62H50.1359C50.1759 14.268 50.3959 14.776 50.7959 15.144C51.2039 15.504 51.6959 15.684 52.2719 15.684C52.7439 15.684 53.1359 15.576 53.4479 15.36C53.7679 15.136 53.9919 14.84 54.1199 14.472H55.2959C55.1199 15.104 54.7679 15.62 54.2399 16.02C53.7119 16.412 53.0559 16.608 52.2719 16.608C51.6479 16.608 51.0879 16.468 50.5919 16.188C50.1039 15.908 49.7199 15.512 49.4399 15C49.1599 14.48 49.0199 13.88 49.0199 13.2C49.0199 12.52 49.1559 11.924 49.4279 11.412C49.6999 10.9 50.0799 10.508 50.5679 10.236C51.0639 9.956 51.6319 9.816 52.2719 9.816C52.8959 9.816 53.4479 9.952 53.9279 10.224C54.4079 10.496 54.7759 10.872 55.0319 11.352C55.2959 11.824 55.4279 12.36 55.4279 12.96ZM54.2999 12.732C54.2999 12.316 54.2079 11.96 54.0239 11.664C53.8399 11.36 53.5879 11.132 53.2679 10.98C52.9559 10.82 52.6079 10.74 52.2239 10.74C51.6719 10.74 51.1999 10.916 50.8079 11.268C50.4239 11.62 50.2039 12.108 50.1479 12.732H54.2999ZM58.2013 10.824V14.7C58.2013 15.02 58.2693 15.248 58.4053 15.384C58.5413 15.512 58.7773 15.576 59.1133 15.576H59.9173V16.5H58.9333C58.3253 16.5 57.8693 16.36 57.5653 16.08C57.2613 15.8 57.1093 15.34 57.1093 14.7V10.824H56.2573V9.924H57.1093V8.268H58.2013V9.924H59.9173V10.824H58.2013ZM67.2404 12.96C67.2404 13.168 67.2284 13.388 67.2044 13.62H61.9484C61.9884 14.268 62.2084 14.776 62.6084 15.144C63.0164 15.504 63.5084 15.684 64.0844 15.684C64.5564 15.684 64.9484 15.576 65.2604 15.36C65.5804 15.136 65.8044 14.84 65.9324 14.472H67.1084C66.9324 15.104 66.5804 15.62 66.0524 16.02C65.5244 16.412 64.8684 16.608 64.0844 16.608C63.4604 16.608 62.9004 16.468 62.4044 16.188C61.9164 15.908 61.5324 15.512 61.2524 15C60.9724 14.48 60.8324 13.88 60.8324 13.2C60.8324 12.52 60.9684 11.924 61.2404 11.412C61.5124 10.9 61.8924 10.508 62.3804 10.236C62.8764 9.956 63.4444 9.816 64.0844 9.816C64.7084 9.816 65.2604 9.952 65.7404 10.224C66.2204 10.496 66.5884 10.872 66.8444 11.352C67.1084 11.824 67.2404 12.36 67.2404 12.96ZM66.1124 12.732C66.1124 12.316 66.0204 11.96 65.8364 11.664C65.6524 11.36 65.4004 11.132 65.0804 10.98C64.7684 10.82 64.4204 10.74 64.0364 10.74C63.4844 10.74 63.0124 10.916 62.6204 11.268C62.2364 11.62 62.0164 12.108 61.9604 12.732H66.1124ZM68.2738 13.188C68.2738 12.516 68.4098 11.928 68.6818 11.424C68.9538 10.912 69.3258 10.516 69.7978 10.236C70.2778 9.956 70.8138 9.816 71.4058 9.816C71.9178 9.816 72.3938 9.936 72.8338 10.176C73.2738 10.408 73.6098 10.716 73.8418 11.1V7.62H74.9458V16.5H73.8418V15.264C73.6258 15.656 73.3058 15.98 72.8818 16.236C72.4578 16.484 71.9618 16.608 71.3938 16.608C70.8098 16.608 70.2778 16.464 69.7978 16.176C69.3258 15.888 68.9538 15.484 68.6818 14.964C68.4098 14.444 68.2738 13.852 68.2738 13.188ZM73.8418 13.2C73.8418 12.704 73.7418 12.272 73.5418 11.904C73.3418 11.536 73.0698 11.256 72.7258 11.064C72.3898 10.864 72.0178 10.764 71.6098 10.764C71.2018 10.764 70.8298 10.86 70.4938 11.052C70.1578 11.244 69.8898 11.524 69.6898 11.892C69.4898 12.26 69.3898 12.692 69.3898 13.188C69.3898 13.692 69.4898 14.132 69.6898 14.508C69.8898 14.876 70.1578 15.16 70.4938 15.36C70.8298 15.552 71.2018 15.648 71.6098 15.648C72.0178 15.648 72.3898 15.552 72.7258 15.36C73.0698 15.16 73.3418 14.876 73.5418 14.508C73.7418 14.132 73.8418 13.696 73.8418 13.2Z" fill="#006600"/>
</svg>
