<svg width="20" height="22" viewBox="0 0 20 22" fill="none" xmlns="http://www.w3.org/2000/svg">
<path d="M10 0C15.523 0 20 4.477 20 10C20 15.523 15.523 20 10 20C4.477 20 0 15.523 0 10C0 4.477 4.477 0 10 0ZM10 2C7.87827 2 5.84344 2.84285 4.34315 4.34315C2.84285 5.84344 2 7.87827 2 10C2 12.1217 2.84285 14.1566 4.34315 15.6569C5.84344 17.1571 7.87827 18 10 18C12.1217 18 14.1566 17.1571 15.6569 15.6569C17.1571 14.1566 18 12.1217 18 10C18 7.87827 17.1571 5.84344 15.6569 4.34315C14.1566 2.84285 12.1217 2 10 2ZM14.95 5.05C15.345 5.446 15.347 6.03 15.286 6.56L15.249 6.843C15.089 7.963 14.644 9.618 14.007 10.999C13.697 11.671 13.307 12.35 12.828 12.829C12.35 13.306 11.672 13.697 10.998 14.007C9.618 14.644 7.963 15.089 6.843 15.249L6.561 15.286C6.031 15.346 5.443 15.342 5.051 14.95C4.694 14.593 4.658 14.075 4.7 13.585L4.732 13.295L4.751 13.157C4.911 12.037 5.356 10.382 5.993 9.001C6.303 8.329 6.693 7.65 7.172 7.171C7.65 6.693 8.329 6.303 9.002 5.993C10.382 5.356 12.037 4.911 13.157 4.751L13.439 4.714C13.969 4.654 14.554 4.654 14.949 5.05H14.95ZM13.238 6.762C12.33 6.917 10.915 7.312 9.838 7.809C9.241 8.085 8.815 8.357 8.586 8.586C8.357 8.815 8.085 9.241 7.809 9.838C7.313 10.915 6.917 12.33 6.762 13.238C7.67 13.083 9.085 12.688 10.162 12.191C10.759 11.915 11.185 11.643 11.414 11.414C11.643 11.185 11.916 10.759 12.191 10.162C12.687 9.085 13.084 7.67 13.238 6.762ZM10 9C10.2652 9 10.5196 9.10536 10.7071 9.29289C10.8946 9.48043 11 9.73478 11 10C11 10.2652 10.8946 10.5196 10.7071 10.7071C10.5196 10.8946 10.2652 11 10 11C9.73478 11 9.48043 10.8946 9.29289 10.7071C9.10536 10.5196 9 10.2652 9 10C9 9.73478 9.10536 9.48043 9.29289 9.29289C9.48043 9.10536 9.73478 9 10 9Z" fill="black"/>
</svg>
