<svg width="24" height="24" viewBox="0 0 24 24" fill="none" xmlns="http://www.w3.org/2000/svg">
<path d="M20.3792 8.57012L19.1492 10.4201C19.7424 11.6032 20.0328 12.915 19.9944 14.2378C19.956 15.5607 19.59 16.8534 18.9292 18.0001H5.0692C4.21036 16.5102 3.85449 14.7832 4.05434 13.0752C4.25418 11.3671 4.99911 9.76895 6.17867 8.51755C7.35824 7.26615 8.90966 6.42816 10.6029 6.12782C12.2962 5.82747 14.0412 6.08076 15.5792 6.85012L17.4292 5.62012C15.5457 4.41234 13.3115 3.87113 11.0841 4.08306C8.85665 4.29499 6.76464 5.24782 5.14269 6.78913C3.52074 8.33045 2.46256 10.3712 2.13741 12.5849C1.81227 14.7987 2.23895 17.0575 3.3492 19.0001C3.52371 19.3024 3.77428 19.5537 4.07603 19.7292C4.37777 19.9046 4.72017 19.998 5.0692 20.0001H18.9192C19.2716 20.0015 19.6181 19.9098 19.9237 19.7342C20.2293 19.5586 20.483 19.3053 20.6592 19.0001C21.5806 17.404 22.043 15.5844 21.9953 13.7421C21.9477 11.8998 21.3918 10.1064 20.3892 8.56012L20.3792 8.57012Z" fill="#484848"/>
<path d="M10.5905 15.4099C10.7762 15.5959 10.9968 15.7434 11.2396 15.844C11.4824 15.9447 11.7426 15.9965 12.0055 15.9965C12.2683 15.9965 12.5286 15.9447 12.7714 15.844C13.0142 15.7434 13.2347 15.5959 13.4205 15.4099L19.0805 6.91992L10.5905 12.5799C10.4045 12.7657 10.257 12.9862 10.1564 13.229C10.0557 13.4718 10.0039 13.7321 10.0039 13.9949C10.0039 14.2578 10.0557 14.518 10.1564 14.7608C10.257 15.0036 10.4045 15.2242 10.5905 15.4099Z" fill="#484848"/>
</svg>
