<svg width="24" height="24" viewBox="0 0 24 24" fill="none" xmlns="http://www.w3.org/2000/svg">
<path fill-rule="evenodd" clip-rule="evenodd" d="M4.99937 10.4162C5.01743 8.90015 5.56491 7.4381 6.54707 6.28305C7.52923 5.12799 8.88427 4.35262 10.3777 4.09109C11.8712 3.82957 13.4091 4.09834 14.7253 4.85092C16.0415 5.60349 17.0532 6.79251 17.5854 8.21222C18.9847 8.59812 20.1967 9.47804 20.997 10.689C21.7973 11.9 22.1317 13.36 21.9381 14.7985C21.7446 16.2371 21.0362 17.5568 19.9443 18.5132C18.8524 19.4696 17.4509 19.9979 15.9994 20.0002H6.99937C5.85008 20.001 4.73562 19.6058 3.84356 18.8811C2.95151 18.1565 2.33632 17.1467 2.10154 16.0216C1.86676 14.8966 2.02673 13.725 2.55452 12.7041C3.08231 11.6831 3.9457 10.8752 4.99937 10.4162ZM11.4994 6.00022C10.8662 6.0001 10.2401 6.13361 9.66198 6.39204C9.0839 6.65046 8.56688 7.02797 8.14469 7.4999C7.72251 7.97182 7.40467 8.52754 7.21196 9.13071C7.01926 9.73388 6.95601 10.3709 7.02637 11.0002C7.05305 11.2428 6.99098 11.4869 6.85163 11.6873C6.71228 11.8876 6.50509 12.0308 6.26837 12.0902C5.5613 12.2714 4.94447 12.704 4.53328 13.3071C4.12208 13.9101 3.94469 14.6424 4.03429 15.3668C4.12389 16.0912 4.47434 16.7581 5.02008 17.2428C5.56582 17.7275 6.26946 17.9968 6.99937 18.0002H15.9994C17.0044 18.0017 17.9732 17.6249 18.713 16.9446C19.4527 16.2643 19.9093 15.3304 19.9919 14.3288C20.0744 13.3272 19.7769 12.3312 19.1585 11.5389C18.5401 10.7467 17.6461 10.2163 16.6544 10.0532C16.4634 10.0216 16.2855 9.93587 16.1419 9.8061C15.9983 9.67632 15.8951 9.50802 15.8444 9.32122C15.5854 8.36731 15.0196 7.5252 14.2342 6.92496C13.4489 6.32471 12.4878 5.99974 11.4994 6.00022Z" fill="black"/>
</svg>
