<svg width="24" height="24" viewBox="0 0 24 24" fill="none" xmlns="http://www.w3.org/2000/svg">
<path d="M8.13186 4.15316L3.1378 12L8.13186 19.8469C8.1848 19.9301 8.22083 20.0228 8.23789 20.1199C8.25495 20.217 8.2527 20.3165 8.23128 20.4127C8.20986 20.5089 8.16969 20.5999 8.11306 20.6806C8.05643 20.7613 7.98445 20.83 7.90124 20.8829C7.78125 20.9598 7.6416 21.0005 7.49905 21C7.37267 21.0002 7.2483 20.9683 7.1375 20.9075C7.02671 20.8467 6.93307 20.7589 6.8653 20.6522L1.6153 12.4022C1.53872 12.2819 1.49805 12.1422 1.49805 11.9996C1.49805 11.8569 1.53872 11.7173 1.6153 11.5969L6.8653 3.34691C6.97209 3.17908 7.14118 3.06055 7.33537 3.01738C7.52956 2.97422 7.73294 3.00997 7.90077 3.11676C8.0686 3.22355 8.18714 3.39264 8.2303 3.58683C8.27346 3.78101 8.23772 3.98439 8.13093 4.15223L8.13186 4.15316ZM22.3819 11.5979L17.1319 3.34785C17.079 3.26475 17.0103 3.19288 16.9296 3.13633C16.8489 3.07979 16.7579 3.03969 16.6618 3.01832C16.4676 2.97516 16.2642 3.0109 16.0964 3.1177C15.9286 3.22449 15.81 3.39357 15.7669 3.58776C15.7237 3.78195 15.7594 3.98533 15.8662 4.15316L20.8603 12L15.8662 19.8469C15.8133 19.9301 15.7773 20.0228 15.7602 20.1199C15.7432 20.217 15.7454 20.3165 15.7668 20.4127C15.7882 20.5089 15.8284 20.5999 15.885 20.6806C15.9417 20.7613 16.0137 20.83 16.0969 20.8829C16.2169 20.9598 16.3565 21.0005 16.4991 21C16.6254 21.0002 16.7498 20.9683 16.8606 20.9075C16.9714 20.8467 17.065 20.7589 17.1328 20.6522L22.3828 12.4022C22.459 12.2819 22.4995 12.1424 22.4993 11.9999C22.4991 11.8575 22.4584 11.718 22.3819 11.5979Z" fill="black"/>
</svg>
