<svg width="19" height="19" viewBox="0 0 19 19" fill="none" xmlns="http://www.w3.org/2000/svg">
<path d="M13.7103 0.85736L12.3103 2.25736L4.33033 0.92736C4.01033 0.87736 3.69033 0.97736 3.46033 1.20736L1.69033 2.97736C1.46033 3.20736 1.36033 3.53736 1.41033 3.85736C1.46033 4.17736 1.67033 4.44736 1.97033 4.58736L7.41033 7.16736L5.92033 8.65736L2.50033 8.34736C2.21033 8.31736 1.91033 8.42736 1.70033 8.63736L0.29033 10.0474C0.174298 10.1633 0.0888797 10.3062 0.041752 10.4633C-0.00537566 10.6204 -0.0127368 10.7867 0.0203299 10.9474C0.0803299 11.2774 0.30033 11.5474 0.61033 11.6774L5.19033 13.6374L7.15033 18.2174C7.28033 18.5274 7.55033 18.7474 7.88033 18.8074C8.04099 18.8395 8.20708 18.8317 8.36402 18.7847C8.52095 18.7376 8.66391 18.6526 8.78033 18.5374L10.1903 17.1274C10.4003 16.9174 10.5103 16.6274 10.4803 16.3274L10.1703 12.9074L11.6603 11.4174L14.2303 16.8574C14.2977 17.0033 14.3994 17.1307 14.5268 17.2287C14.6542 17.3266 14.8035 17.3922 14.9619 17.4197C15.1202 17.4473 15.2829 17.436 15.4359 17.3868C15.5889 17.3376 15.7277 17.252 15.8403 17.1374L17.6103 15.3674C17.8403 15.1374 17.9403 14.8174 17.8903 14.4974L16.5603 6.51736L17.9603 5.11736C18.5303 4.54736 18.8403 3.79736 18.8403 2.99736C18.8403 2.19736 18.5303 1.44736 17.9603 0.87736C17.3978 0.315558 16.6353 0 15.8403 0C15.0453 0 14.2828 0.315558 13.7203 0.87736L13.7103 0.85736ZM16.5403 3.68736L14.7703 5.45736C14.5403 5.68736 14.4403 6.00736 14.4903 6.32736L15.8203 14.3074L15.4203 14.7074L12.8503 9.27736C12.783 9.13142 12.6813 9.004 12.5538 8.90604C12.4264 8.80809 12.2771 8.74253 12.1188 8.71499C11.9604 8.68745 11.7978 8.69876 11.6448 8.74794C11.4918 8.79713 11.353 8.88272 11.2403 8.99736L8.41033 11.8274C8.30556 11.9308 8.22516 12.0562 8.17499 12.1946C8.12483 12.333 8.10615 12.4808 8.12033 12.6274L8.43033 16.0474L8.39033 16.0874L6.85033 12.4974C6.75033 12.2574 6.56033 12.0774 6.33033 11.9674L2.74033 10.4274L2.78033 10.3874L6.20033 10.6974C6.50033 10.7274 6.79033 10.6174 7.00033 10.4074L9.83033 7.57736C10.0603 7.34736 10.1603 7.01736 10.1103 6.69736C10.0603 6.37736 9.85033 6.10736 9.55033 5.96736L4.11033 3.38736L4.51033 2.98736L12.4903 4.31736C12.8103 4.36736 13.1303 4.26736 13.3603 4.03736L15.1303 2.26736C15.27 2.12781 15.448 2.03292 15.6416 1.99472C15.8353 1.95652 16.036 1.97675 16.2182 2.05284C16.4004 2.12892 16.5558 2.25743 16.6648 2.42204C16.7738 2.58665 16.8314 2.77994 16.8303 2.97736C16.8303 3.24736 16.7303 3.49736 16.5403 3.68736Z" fill="black"/>
</svg>
