<svg width="15" height="13" viewBox="0 0 15 13" fill="none" xmlns="http://www.w3.org/2000/svg">
<path d="M7.5 0C7.5 0 2.8605 3.85667 0.26775 5.94533C0.185211 6.01453 0.118716 6.09967 0.0725868 6.19523C0.0264574 6.29079 0.00172598 6.39463 0 6.5C0 6.69155 0.0790176 6.87525 0.21967 7.01069C0.360322 7.14613 0.551088 7.22222 0.75 7.22222H2.25V12.2778C2.25 12.4693 2.32902 12.653 2.46967 12.7885C2.61032 12.9239 2.80109 13 3 13H5.25C5.44891 13 5.63968 12.9239 5.78033 12.7885C5.92098 12.653 6 12.4693 6 12.2778V9.38889H9V12.2778C9 12.4693 9.07902 12.653 9.21967 12.7885C9.36032 12.9239 9.55109 13 9.75 13H12C12.1989 13 12.3897 12.9239 12.5303 12.7885C12.671 12.653 12.75 12.4693 12.75 12.2778V7.22222H14.25C14.4489 7.22222 14.6397 7.14613 14.7803 7.01069C14.921 6.87525 15 6.69155 15 6.5C14.999 6.39262 14.9725 6.28688 14.9228 6.19078C14.873 6.09468 14.8012 6.01075 14.7128 5.94533C12.138 3.85667 7.5 0 7.5 0Z" fill="white"/>
</svg>
