<svg width="27" height="30" viewBox="0 0 27 30" fill="none" xmlns="http://www.w3.org/2000/svg">
<path d="M15.8469 0.0108252C14.3388 -0.161523 12.9929 1.75187 12.6908 4.21174L12.0536 9.40125C11.9651 10.1221 11.8159 10.3788 11.2742 10.7434L0.772217 18.2381C0.430237 18.4705 0.23469 18.7867 0.187263 19.173L0.00383021 20.6669C-0.037255 21.0015 0.235216 21.2308 0.616161 21.108L11.0148 17.8616L10.9583 24.4955L6.39684 26.3013C6.05435 26.4288 5.87779 26.695 5.82557 27.1202L5.7577 27.673C5.71655 28.0081 5.90838 28.2537 6.24354 28.2948L18.3225 29.7779C18.6577 29.8191 18.8906 29.6257 18.9318 29.2905L18.9998 28.7367C19.0519 28.312 18.945 28.0111 18.6567 27.8061L14.6671 24.9504L16.2176 18.4999L25.522 24.1655C25.8488 24.3752 26.1812 24.2202 26.2223 23.8856L26.4058 22.3911C26.4532 22.0054 26.3273 21.6497 26.0643 21.343L17.6748 11.5287C17.25 11.0454 17.1673 10.7603 17.2559 10.0394L17.8931 4.84993C18.1951 2.39007 17.3393 0.206895 15.8469 0.0108252Z" fill="#0EFF42"/>
</svg>
