<svg width="24" height="24" viewBox="0 0 24 24" fill="none" xmlns="http://www.w3.org/2000/svg">
<path d="M12 8C9.83 8 8 9.83 8 12C8 14.17 9.83 16 12 16C14.17 16 16 14.17 16 12C16 9.83 14.17 8 12 8ZM12 14C10.93 14 10 13.07 10 12C10 10.93 10.93 10 12 10C13.07 10 14 10.93 14 12C14 13.07 13.07 14 12 14Z" fill="black"/>
<path d="M20.0005 5.00002H17.4105L14.7005 2.29002C14.607 2.19734 14.4962 2.12401 14.3744 2.07425C14.2525 2.02448 14.1221 1.99926 13.9905 2.00002H9.99047C9.72047 2.00002 9.47047 2.11002 9.28047 2.29002L6.57047 5.00002H3.98047C2.88047 5.00002 1.98047 5.90002 1.98047 7.00002V18C1.98047 19.1 2.88047 20 3.98047 20H19.9805C21.0805 20 21.9805 19.1 21.9805 18V7.00002C21.9805 5.90002 21.0805 5.00002 19.9805 5.00002H20.0005ZM20.0005 18H4.00047V7.00002H7.00047C7.27047 7.00002 7.52047 6.89002 7.71047 6.71002L10.4205 4.00002H13.5905L16.3005 6.71002C16.4905 6.90002 16.7405 7.00002 17.0105 7.00002H20.0105V18H20.0005Z" fill="black"/>
</svg>
