<svg width="22" height="22" viewBox="0 0 22 22" fill="none" xmlns="http://www.w3.org/2000/svg">
<path d="M20.4286 8.59375H13.3571V1.5625C13.3571 0.699707 12.6534 0 11.7857 0H10.2143C9.34656 0 8.64286 0.699707 8.64286 1.5625V8.59375H1.57143C0.703705 8.59375 0 9.29346 0 10.1562V11.7188C0 12.5815 0.703705 13.2812 1.57143 13.2812H8.64286V20.3125C8.64286 21.1753 9.34656 21.875 10.2143 21.875H11.7857C12.6534 21.875 13.3571 21.1753 13.3571 20.3125V13.2812H20.4286C21.2963 13.2812 22 12.5815 22 11.7188V10.1562C22 9.29346 21.2963 8.59375 20.4286 8.59375Z" fill="white"/>
</svg>
