<svg width="239" height="45" viewBox="0 0 239 45" fill="none" xmlns="http://www.w3.org/2000/svg">
<path d="M73.3574 35.0795C72.8507 35.0795 72.406 34.9548 72.0233 34.7053C71.6539 34.4558 71.3783 34.1275 71.1966 33.7204C71.0173 33.3002 70.9715 32.8406 71.0593 32.3416L71.25 31.2583H73.89L73.7201 32.2234C73.7086 32.2891 73.7182 32.3482 73.7489 32.4007C73.7953 32.4401 73.8519 32.4598 73.9185 32.4598H82.5385C82.6052 32.4598 82.662 32.4401 82.7089 32.4007C82.7715 32.3482 82.8086 32.2891 82.8201 32.2234L83.2951 29.5249C83.3067 29.4593 83.2892 29.4067 83.2428 29.3673C83.2098 29.328 83.1599 29.3083 83.0932 29.3083H74.3732C73.8666 29.3083 73.4219 29.1835 73.0391 28.934C72.6697 28.6845 72.3941 28.3562 72.2125 27.9491C72.0331 27.5289 71.9885 27.0628 72.0786 26.5506L72.5917 23.6355C72.6795 23.1365 72.886 22.6834 73.2109 22.2763C73.5382 21.8561 73.9305 21.5213 74.3878 21.2718C74.8583 21.0223 75.347 20.8975 75.8536 20.8975H84.6936C85.2003 20.8975 85.6383 21.0223 86.0078 21.2718C86.3905 21.5213 86.6716 21.8561 86.8509 22.2763C87.0326 22.6834 87.0795 23.1365 86.9917 23.6355L86.801 24.7188H84.141L84.3109 23.7536C84.3225 23.688 84.3051 23.6355 84.2587 23.5961C84.2279 23.5435 84.1792 23.5173 84.1125 23.5173H75.4925C75.4259 23.5173 75.3612 23.5435 75.2987 23.5961C75.2517 23.6355 75.2225 23.688 75.2109 23.7536L74.7359 26.4522C74.7244 26.5178 74.7351 26.5703 74.7682 26.6097C74.8146 26.6491 74.8711 26.6688 74.9378 26.6688H83.6778C84.1845 26.6688 84.6225 26.7936 84.9919 27.0431C85.3747 27.2926 85.6557 27.6274 85.8351 28.0476C86.0168 28.4547 86.0626 28.9143 85.9724 29.4264L85.4593 32.3416C85.3715 32.8406 85.1639 33.3002 84.8366 33.7204C84.5117 34.1275 84.1139 34.4558 83.6433 34.7053C83.186 34.9548 82.7041 35.0795 82.1974 35.0795H73.3574ZM87.1809 35.0795L89.6771 20.8975H92.3371L91.3212 26.6688H94.7012L100.637 20.8975H103.517L103.385 21.646L96.869 27.9885L101.173 34.331L101.041 35.0795H98.1409L94.2367 29.3083H90.8567L89.8409 35.0795H87.1809ZM108.698 35.0795L109.634 29.7613L104.555 20.8975H107.675L111.477 26.9052L117.335 20.8975H120.515L112.291 29.781L111.358 35.0795H108.698ZM121.992 35.0795C121.485 35.0795 121.04 34.9548 120.658 34.7053C120.288 34.4558 120.013 34.1275 119.831 33.7204C119.651 33.3002 119.606 32.8406 119.694 32.3416L121.226 23.6355C121.314 23.1365 121.52 22.6834 121.845 22.2763C122.172 21.8561 122.565 21.5213 123.022 21.2718C123.493 21.0223 123.981 20.8975 124.488 20.8975H133.308C133.815 20.8975 134.259 21.0223 134.642 21.2718C135.025 21.5213 135.306 21.8561 135.485 22.2763C135.667 22.6834 135.714 23.1365 135.626 23.6355L135.432 24.7385H132.772L132.945 23.7536C132.957 23.688 132.939 23.6355 132.893 23.5961C132.849 23.5435 132.793 23.5173 132.727 23.5173H124.127C124.06 23.5173 123.995 23.5435 123.933 23.5961C123.886 23.6355 123.857 23.688 123.845 23.7536L122.354 32.2234C122.343 32.2891 122.352 32.3482 122.383 32.4007C122.43 32.4401 122.486 32.4598 122.553 32.4598H131.153C131.219 32.4598 131.283 32.4401 131.343 32.4007C131.406 32.3482 131.443 32.2891 131.454 32.2234L131.905 29.6628H128.645L129.106 27.0431H135.026L134.094 32.3416C134.006 32.8406 133.798 33.3002 133.471 33.7204C133.146 34.1275 132.748 34.4558 132.278 34.7053C131.807 34.9548 131.318 35.0795 130.812 35.0795H121.992ZM147.293 35.0795L143.851 29.978H147.311L150.301 34.3507L150.173 35.0795H147.293ZM135.813 35.0795L138.306 20.9172H149.906C150.413 20.9172 150.857 21.042 151.24 21.2915C151.623 21.541 151.904 21.8758 152.083 22.296C152.265 22.7031 152.312 23.1562 152.224 23.6552L151.551 27.4764C151.464 27.9754 151.256 28.435 150.929 28.8552C150.601 29.2754 150.203 29.6103 149.732 29.8598C149.264 30.0961 148.776 30.2143 148.27 30.2143L139.306 30.234L138.453 35.0795H135.813ZM140.011 27.5946H148.611C148.677 27.5946 148.741 27.5749 148.801 27.5355C148.861 27.4961 148.897 27.4436 148.909 27.3779L149.547 23.7536C149.558 23.688 149.541 23.6355 149.494 23.5961C149.45 23.5435 149.395 23.5173 149.328 23.5173H140.728C140.662 23.5173 140.597 23.5435 140.534 23.5961C140.488 23.6355 140.458 23.688 140.447 23.7536L139.809 27.3779C139.797 27.4436 139.808 27.4961 139.841 27.5355C139.887 27.5749 139.944 27.5946 140.011 27.5946ZM152.037 35.0795L154.533 20.8975H157.153L154.657 35.0795H152.037ZM156.634 35.0795L159.131 20.8975H170.731C171.237 20.8975 171.682 21.0223 172.065 21.2718C172.448 21.5213 172.729 21.8561 172.908 22.2763C173.09 22.6834 173.137 23.1365 173.049 23.6355L171.516 32.3416C171.429 32.8406 171.221 33.3002 170.894 33.7204C170.569 34.1275 170.171 34.4558 169.7 34.7053C169.23 34.9548 168.741 35.0795 168.234 35.0795H156.634ZM159.956 32.4598H168.576C168.642 32.4598 168.706 32.4401 168.766 32.4007C168.829 32.3482 168.866 32.2891 168.877 32.2234L170.368 23.7536C170.38 23.688 170.362 23.6355 170.316 23.5961C170.272 23.5435 170.216 23.5173 170.15 23.5173H161.53C161.463 23.5173 161.398 23.5435 161.336 23.5961C161.289 23.6355 161.26 23.688 161.248 23.7536L159.757 32.2234C159.746 32.2891 159.755 32.3482 159.786 32.4007C159.832 32.4401 159.889 32.4598 159.956 32.4598ZM182.167 35.0795C181.661 35.0795 181.216 34.9548 180.833 34.7053C180.464 34.4558 180.188 34.1275 180.007 33.7204C179.827 33.3002 179.781 32.8406 179.869 32.3416L181.402 23.6355C181.49 23.1365 181.696 22.6834 182.021 22.2763C182.348 21.8561 182.741 21.5213 183.198 21.2718C183.668 21.0223 184.157 20.8975 184.664 20.8975H193.484C193.99 20.8975 194.435 21.0223 194.818 21.2718C195.201 21.5213 195.482 21.8561 195.661 22.2763C195.843 22.6834 195.89 23.1365 195.802 23.6355L195.608 24.7385H192.948L193.121 23.7536C193.132 23.688 193.115 23.6355 193.069 23.5961C193.025 23.5435 192.969 23.5173 192.903 23.5173H184.303C184.236 23.5173 184.171 23.5435 184.109 23.5961C184.062 23.6355 184.032 23.688 184.021 23.7536L182.53 32.2234C182.519 32.2891 182.528 32.3482 182.559 32.4007C182.605 32.4401 182.662 32.4598 182.729 32.4598H191.329C191.395 32.4598 191.459 32.4401 191.519 32.4007C191.582 32.3482 191.619 32.2891 191.63 32.2234L192.081 29.6628H188.821L189.282 27.0431H195.202L194.269 32.3416C194.181 32.8406 193.974 33.3002 193.647 33.7204C193.322 34.1275 192.924 34.4558 192.453 34.7053C191.983 34.9548 191.494 35.0795 190.987 35.0795H182.167ZM198.769 35.0795C198.262 35.0795 197.818 34.9548 197.435 34.7053C197.065 34.4558 196.79 34.1275 196.608 33.7204C196.429 33.3002 196.383 32.8406 196.471 32.3416L198.003 23.6355C198.091 23.1365 198.298 22.6834 198.623 22.2763C198.95 21.8561 199.342 21.5213 199.799 21.2718C200.27 21.0223 200.759 20.8975 201.265 20.8975H212.845L212.384 23.5173H201.364C201.151 23.5173 200.967 23.5764 200.813 23.6946C200.672 23.8127 200.582 23.9834 200.543 24.2067L199.211 31.7704C199.174 31.9805 199.204 32.1512 199.301 32.2825C199.414 32.4007 199.577 32.4598 199.79 32.4598H210.81L210.349 35.0795H198.769ZM215.154 35.0795C214.648 35.0795 214.203 34.9548 213.82 34.7053C213.451 34.4558 213.175 34.1275 212.994 33.7204C212.814 33.3002 212.768 32.8406 212.856 32.3416L213.047 31.2583H215.687L215.517 32.2234C215.505 32.2891 215.515 32.3482 215.546 32.4007C215.592 32.4401 215.649 32.4598 215.715 32.4598H224.335C224.402 32.4598 224.459 32.4401 224.506 32.4007C224.568 32.3482 224.605 32.2891 224.617 32.2234L225.092 29.5249C225.104 29.4593 225.086 29.4067 225.04 29.3673C225.007 29.328 224.957 29.3083 224.89 29.3083H216.17C215.663 29.3083 215.219 29.1835 214.836 28.934C214.467 28.6845 214.191 28.3562 214.009 27.9491C213.83 27.5289 213.785 27.0628 213.875 26.5506L214.389 23.6355C214.476 23.1365 214.683 22.6834 215.008 22.2763C215.335 21.8561 215.727 21.5213 216.185 21.2718C216.655 21.0223 217.144 20.8975 217.651 20.8975H226.491C226.997 20.8975 227.435 21.0223 227.805 21.2718C228.187 21.5213 228.468 21.8561 228.648 22.2763C228.829 22.6834 228.876 23.1365 228.789 23.6355L228.598 24.7188H225.938L226.108 23.7536C226.119 23.688 226.102 23.6355 226.056 23.5961C226.025 23.5435 225.976 23.5173 225.909 23.5173H217.289C217.223 23.5173 217.158 23.5435 217.096 23.5961C217.049 23.6355 217.019 23.688 217.008 23.7536L216.533 26.4522C216.521 26.5178 216.532 26.5703 216.565 26.6097C216.611 26.6491 216.668 26.6688 216.735 26.6688H225.475C225.981 26.6688 226.419 26.7936 226.789 27.0431C227.172 27.2926 227.453 27.6274 227.632 28.0476C227.814 28.4547 227.859 28.9143 227.769 29.4264L227.256 32.3416C227.168 32.8406 226.961 33.3002 226.634 33.7204C226.309 34.1275 225.911 34.4558 225.44 34.7053C224.983 34.9548 224.501 35.0795 223.994 35.0795H215.154Z" fill="#3D1081"/>
<path d="M66.1613 12.5759C63.8607 17.632 60.9989 22.2621 56.9817 26.0713C52.5354 30.2874 47.4458 33.4563 41.4873 35.1061C41.1589 35.197 40.8545 35.332 40.5746 35.526C35.4418 39.0842 29.8077 41.5193 23.774 43.0843C21.839 43.5862 19.8935 44.0255 17.9322 44.4014C17.7793 44.4307 17.5921 44.5591 17.4043 44.3297C17.6521 44.0584 17.9975 43.9626 18.3098 43.8152C22.3499 41.9075 26.4962 40.2316 30.4716 38.1807C37.5456 34.5312 44.2189 30.2667 50.2138 25.0239C54.4698 21.3019 58.103 16.9821 61.487 12.4554C64.3532 8.62134 66.99 4.63242 69.5753 0.607393C69.7036 0.407558 69.7878 0.159668 70.2096 0C69.3051 4.39353 67.9902 8.53773 66.1613 12.5759Z" fill="#3D1081"/>
<path d="M6.95682 42.6547C4.60356 42.8632 2.31518 42.7907 0.026542 42.7698C0.017694 42.6866 0.00884584 42.6034 0 42.5201C0.545645 42.4033 1.08938 42.2766 1.63724 42.1713C5.88491 41.355 10.1728 40.7709 14.4157 39.921C19.8593 38.8305 25.1741 37.3075 30.4158 35.4864C32.7074 34.6903 34.9657 33.8204 37.2156 32.921C37.3538 32.8658 37.485 32.7477 37.7638 32.9184C36.9616 33.5532 36.1377 34.0753 35.2816 34.5166C26.4006 39.0953 17.1657 42.4595 6.95682 42.6547Z" fill="#3D1081"/>
<path d="M17.1037 37.0231C16.3905 37.0562 15.7405 37.0939 15.0899 37.1049C14.8575 37.1088 14.5177 37.1521 14.5043 36.816C14.4899 36.4546 14.8676 36.4584 15.1076 36.4074C16.906 36.0257 18.7089 35.6651 20.5098 35.2954C25.4566 34.2801 30.3713 33.1209 35.1376 31.445C37.8418 30.4942 40.4687 29.3205 43.1145 28.209C43.9004 27.8788 44.7125 27.8433 45.5595 27.8052C41.4722 30.8471 36.9111 32.9537 32.0952 34.5035C27.2507 36.0624 22.3059 37.1499 17.1037 37.0231Z" fill="#3D1081"/>
</svg>
